<svg xmlns="http://www.w3.org/2000/svg" width="112" height="112" viewBox="0 0 112 112" fill="none"><circle cx="56" cy="56" r="56" fill="white"></circle><circle cx="56" cy="56" r="55.5333" stroke="#0A8E3C" stroke-opacity="0.3" stroke-width="0.933333"></circle><g clip-path="url(#clip0_1_276)"><path d="M70.9824 49.0046C71.2096 55.8198 68.7864 61.2719 63.5614 65.5125C62.5013 66.4212 61.3654 67.2541 60.3053 68.1628C60.0781 68.3143 60.0024 68.6929 59.9267 68.9201C59.851 69.1472 59.9267 69.4501 59.9267 69.6773C59.851 70.5103 59.9267 71.1161 60.8354 71.7218C62.577 72.9334 62.2741 75.5838 60.3053 76.5682C60.1539 76.6439 60.0024 76.7196 59.7752 76.7954C59.851 77.0225 59.851 77.3254 59.9267 77.5526C60.0781 78.7642 59.3966 79.9 58.2608 80.5816C58.0336 80.733 57.8064 80.9602 57.8064 81.1873C57.1249 84.4435 54.2474 86.8666 50.9155 86.8666C47.5837 86.8666 44.6304 84.4435 44.0246 81.1873C43.9489 80.9602 43.8732 80.733 43.7217 80.6573C42.0558 79.5971 41.6772 78.8399 42.0558 76.9468C41.5257 76.5682 40.9957 76.2653 40.6171 75.8109C39.4055 74.4479 39.7841 72.2519 41.45 71.3432C41.7529 71.1918 41.8286 70.9646 41.9044 70.586C42.1315 68.9958 41.5257 67.9356 40.2384 67.027C38.1182 65.4368 36.0736 63.6951 34.4834 61.4991C27.3654 51.5793 31.5302 37.0402 42.9645 32.4211C46.5235 31.0581 49.2496 30.9066 52.9601 31.0581C52.9601 34.0113 52.9601 36.9645 52.9601 39.9935C52.43 39.9935 51.8999 39.9935 51.4456 39.9935C49.9311 39.9935 49.0224 40.7507 49.0224 42.038C49.0224 43.2496 49.9311 44.0069 51.4456 44.0069C51.9757 44.0069 52.43 44.0069 52.9601 44.0069C52.9601 45.6728 52.9601 47.263 52.9601 48.9289C54.3231 48.9289 55.6104 48.9289 56.9734 48.9289C57.0492 47.6416 57.5792 46.5057 58.7151 45.6728C59.4723 45.1427 60.381 44.9155 61.2897 44.9913C63.3343 45.1427 64.6973 46.6572 65.0002 48.9289C66.969 49.0046 68.9378 49.0046 70.9824 49.0046ZM50.9912 63.0136C48.4924 62.635 47.0536 61.1962 47.0536 59.0759C46.9779 56.8799 48.4166 55.4412 50.9912 54.9111C50.9912 53.6238 50.9912 52.3365 50.9912 50.9735C49.0224 50.9735 47.0536 50.9735 45.0091 50.9735C45.0091 50.2919 45.0091 49.7619 45.0091 49.1561C45.0091 47.8688 44.1761 46.9601 42.9645 47.0358C41.8286 47.0358 40.9957 47.9445 40.9957 49.2318C40.9957 49.8376 40.9957 50.4434 40.9957 51.0492C38.2696 51.0492 35.695 51.0492 33.0447 51.0492C33.0447 51.2006 33.0447 51.2764 33.0447 51.4278C33.3476 55.4412 34.7106 59.0759 37.5881 62.0292C39.4812 63.9223 41.6015 65.5125 43.646 67.2541C43.9489 67.4813 44.1004 67.7085 44.1004 68.1628C44.1004 69.1472 44.1004 70.1316 44.1004 71.0403C46.4478 71.0403 48.7953 71.0403 51.067 71.0403C50.9912 68.2385 50.9912 65.6639 50.9912 63.0136ZM57.9579 70.9646C57.9579 69.9045 57.9579 68.9958 57.9579 68.0114C57.9579 67.6327 58.1093 67.3299 58.4122 67.1027C59.851 65.9668 61.214 64.831 62.6527 63.6951C65.5303 61.2719 67.4991 58.3187 68.4835 54.6839C68.7864 53.4724 68.9378 52.2608 69.165 50.9735C67.0447 50.9735 65.0759 50.9735 63.1071 50.9735C63.1071 50.2919 63.1071 49.6862 63.1071 49.0804C63.1071 47.8688 62.2741 47.0358 61.1383 47.0358C60.0024 47.0358 59.1694 47.9445 59.0937 49.1561C59.0937 49.7619 59.0937 50.3677 59.0937 51.0492C57.0492 51.0492 55.0803 51.0492 53.0358 51.0492C53.0358 53.0937 53.0358 55.0626 53.0358 57.0314C52.3543 57.0314 51.8242 57.0314 51.2184 57.0314C49.9311 57.0314 49.0224 57.8644 49.0224 59.0759C49.0224 60.2118 49.9311 61.0448 51.2184 61.0448C51.8242 61.0448 52.43 61.0448 53.0358 61.0448C53.0358 64.4523 53.0358 67.7085 53.0358 71.0403C54.5503 71.0403 55.989 71.0403 57.5035 71.0403C57.5792 70.9646 57.7307 70.9646 57.9579 70.9646ZM47.0536 49.0046C47.7351 49.0046 48.4166 49.0046 49.0224 49.0046C49.7039 49.0046 50.3097 49.0046 50.9912 49.0046C50.9912 47.9445 50.9912 47.0358 50.9912 46.0514C48.4166 45.5971 47.0536 44.1583 47.0536 41.9623C47.0536 39.842 48.4924 38.3276 50.9912 37.8732C50.9912 36.2073 50.9912 34.6171 50.9912 32.9512C41.2986 32.5725 33.4233 40.4478 33.1204 48.9289C35.0892 48.9289 36.9823 48.9289 38.9511 48.9289C39.254 46.5057 40.8442 44.9913 43.0402 44.9913C45.1605 44.9913 46.7507 46.5815 47.0536 49.0046ZM50.9912 73.0092C50.0068 73.0092 49.0224 73.0092 47.9623 73.0092C46.2964 73.0092 44.7062 73.0092 43.0402 73.0092C42.5859 73.0092 42.1315 73.2363 42.0558 73.6907C41.9801 73.9936 42.1315 74.4479 42.3587 74.7508C42.5102 74.978 42.9645 74.978 43.2674 74.978C47.7351 74.978 52.2028 74.978 56.6705 74.978C57.4278 74.978 58.185 74.978 58.9423 74.978C59.6238 74.978 60.0781 74.4479 60.0024 73.8421C59.9267 73.3121 59.4723 72.9334 58.7908 72.9334C56.2162 73.0092 53.5659 73.0092 50.9912 73.0092ZM55.8376 81.0359C52.5815 81.0359 49.401 81.0359 46.1449 81.0359C46.5235 83.2319 48.6438 84.9735 50.9912 84.9735C53.3387 84.9735 55.459 83.3076 55.8376 81.0359ZM51.067 77.0225C49.0981 77.0225 47.205 77.0225 45.2362 77.0225C44.479 77.0225 44.0246 77.4011 44.0246 78.0069C44.0246 78.6127 44.479 78.9914 45.2362 78.9914C49.0981 78.9914 52.8843 78.9914 56.7463 78.9914C57.5035 78.9914 57.9579 78.6127 57.9579 78.0069C57.9579 77.4011 57.5035 77.0225 56.7463 77.0225C54.8532 77.0225 52.9601 77.0225 51.067 77.0225Z" fill="#0A8E3C"></path><path d="M60.987 38.0247C58.4881 37.7218 56.9736 36.1316 56.9736 34.0113C56.9736 31.8153 58.4881 30.3008 60.987 29.9222C60.987 29.3164 60.987 28.7106 60.987 28.1048C60.987 26.2874 62.2743 25.0001 64.0917 25.0001C68.7109 25.0001 73.2543 25.0001 77.8735 25.0001C79.6908 25.0001 80.9781 26.2874 80.9781 28.1048C80.9781 32.0425 80.9781 35.9801 80.9781 39.9935C80.9781 41.7351 79.6908 43.0224 77.9492 43.0224C76.359 43.0224 74.6931 43.0224 72.9514 43.0224C72.9514 42.4166 72.9514 41.8109 72.9514 41.2051C72.9514 39.9178 72.1184 39.0091 70.9826 39.0091C69.771 39.0091 68.938 39.9178 68.938 41.2051C68.938 41.7351 68.938 42.3409 68.938 43.0224C67.575 43.0224 66.2877 43.0224 64.9247 43.0224C63.6373 43.0224 62.2743 43.0224 60.9113 43.0224C60.987 41.3565 60.987 39.6906 60.987 38.0247ZM74.9959 40.9779C75.9046 40.9779 76.7376 40.9779 77.6463 40.9779C78.6307 40.9779 78.9336 40.675 78.9336 39.6906C78.9336 35.9044 78.9336 32.1182 78.9336 28.332C78.9336 27.3476 78.6307 27.0447 77.6463 27.0447C74.693 27.0447 71.7398 27.0447 68.8623 27.0447C67.2721 27.0447 65.6819 27.0447 64.0917 27.0447C63.3345 27.0447 62.9558 27.4233 62.9558 28.1805C62.9558 28.4834 62.9558 28.862 62.9558 29.1649C62.9558 30.1494 62.9558 31.058 62.9558 32.0425C62.2743 32.0425 61.7442 32.0425 61.1385 32.0425C59.8511 32.0425 58.9425 32.8754 58.9425 34.0113C58.9425 35.1471 59.8511 35.9801 61.1385 35.9801C61.7442 35.9801 62.35 35.9801 62.9558 35.9801C62.9558 37.7218 62.9558 39.312 62.9558 40.9779C64.3189 40.9779 65.6062 40.9779 66.8935 40.9779C67.2721 38.479 68.8623 36.9645 70.9826 37.0402C73.1786 37.0402 74.693 38.5547 74.9959 40.9779Z" fill="#0A8E3C"></path></g><defs><clipPath id="clip0_1_276"><rect width="49.9778" height="62.018" fill="white" transform="translate(31 25)"></rect></clipPath></defs></svg>