<svg xmlns="http://www.w3.org/2000/svg" width="112" height="112" viewBox="0 0 112 112" fill="none"><circle cx="56" cy="56" r="56" fill="white"></circle><circle cx="56" cy="56" r="55.5333" stroke="#0A8E3C" stroke-opacity="0.3" stroke-width="0.933333"></circle><g clip-path="url(#clip0_1_289)"><path d="M26.9997 80.1793C27.2155 79.7476 27.6472 79.5317 28.1509 79.5317C29.2302 79.5317 30.3094 79.5317 31.4607 79.5317C31.4607 79.2439 31.4607 79.0281 31.4607 78.8122C31.4607 74.783 31.4607 70.6817 31.4607 66.6525C31.4607 65.5732 31.6765 65.3574 32.7558 65.3574C35.5619 65.3574 38.368 65.3574 41.246 65.3574C42.2533 65.3574 42.4692 65.5732 42.4692 66.5805C42.4692 70.6098 42.4692 74.711 42.4692 78.7403C42.4692 78.9561 42.4692 79.172 42.4692 79.4598C43.1168 79.4598 43.7643 79.4598 44.4119 79.4598C44.4119 79.2439 44.4119 79.0281 44.4119 78.7403C44.4119 72.8403 44.4119 66.9403 44.4119 61.0403C44.4119 59.8891 44.6277 59.6732 45.779 59.6732C48.5851 59.6732 51.3911 59.6732 54.2692 59.6732C55.2046 59.6732 55.4204 59.961 55.4204 60.8964C55.4204 66.7964 55.4204 72.7683 55.4204 78.6683C55.4204 78.8842 55.4204 79.1 55.4204 79.3878C56.068 79.3878 56.7155 79.3878 57.4351 79.3878C57.4351 79.1 57.4351 78.8842 57.4351 78.6683C57.4351 70.4659 57.4351 62.2634 57.4351 54.061C57.4351 52.8378 57.6509 52.6939 58.8741 52.6939C61.6802 52.6939 64.4143 52.6939 67.2204 52.6939C68.2277 52.6939 68.5155 52.9817 68.5155 53.9891C68.5155 62.1915 68.5155 70.4659 68.5155 78.6683C68.5155 78.8842 68.5155 79.172 68.5155 79.4598C69.2351 79.4598 69.8107 79.4598 70.5302 79.4598C70.5302 79.172 70.5302 78.9561 70.5302 78.7403C70.5302 68.9549 70.5302 59.1695 70.5302 49.4561C70.5302 48.3049 70.746 48.161 71.8972 48.161C74.7033 48.161 77.5814 48.161 80.3875 48.161C81.2509 48.161 81.5387 48.4488 81.5387 49.3122C81.5387 53.4854 81.5387 57.5866 81.5387 61.7598C81.5387 61.9756 81.5387 62.1195 81.4668 62.3354C81.3229 62.7671 80.9631 62.983 80.6033 62.911C80.3155 62.8391 80.0277 62.4793 79.8838 62.2635C79.8119 62.1195 79.8119 61.8317 79.8119 61.6159C79.8119 57.9464 79.8119 54.3488 79.8119 50.6793C79.8119 50.4634 79.8119 50.2476 79.8119 49.9598C77.2936 49.9598 74.7753 49.9598 72.257 49.9598C72.257 59.8171 72.257 69.6744 72.257 79.6037C74.7753 79.6037 77.2216 79.6037 79.8119 79.6037C79.8119 79.3878 79.8119 79.172 79.8119 78.8842C79.8119 74.9269 79.8119 70.9695 79.8119 66.9403C79.8119 66.7964 79.8119 66.6525 79.8119 66.5086C79.8119 65.6452 80.0997 65.2854 80.6753 65.2854C81.2509 65.2854 81.5387 65.7171 81.5387 66.5086C81.5387 70.6098 81.5387 74.711 81.5387 78.8122C81.5387 79.0281 81.5387 79.2439 81.5387 79.5317C81.7546 79.5317 81.9704 79.5317 82.1863 79.5317C83.1216 79.5317 84.057 79.5317 84.9924 79.5317C85.568 79.5317 85.9277 79.8195 85.9277 80.3952C85.9277 81.6183 85.9277 82.8415 85.9277 84.0647C85.9277 84.5683 85.568 84.9281 85.0643 84.9281C84.9204 84.9281 84.7046 84.9281 84.5607 84.9281C70.3143 84.9281 55.996 84.9281 41.7497 84.9281C41.5338 84.9281 41.3899 84.9281 41.1741 84.9281C40.6704 84.8561 40.3826 84.5683 40.3826 84.0647C40.3826 83.633 40.7424 83.2732 41.1741 83.2013C41.3899 83.2013 41.5338 83.2013 41.7497 83.2013C55.6363 83.2013 69.5229 83.2013 83.4094 83.2013C83.6253 83.2013 83.9131 83.2013 84.2009 83.2013C84.2009 82.5537 84.2009 81.9061 84.2009 81.2586C65.7094 81.2586 47.2899 81.2586 28.7265 81.2586C28.7265 81.9061 28.7265 82.4817 28.7265 83.2013C28.8704 83.2013 29.0863 83.2013 29.3021 83.2013C31.8204 83.2013 34.3387 83.2013 36.929 83.2013C37.4326 83.2013 37.7924 83.3452 38.0082 83.7769C38.2241 84.3525 37.7924 84.9281 37.0009 84.9281C35.0582 84.9281 33.1155 84.9281 31.1009 84.9281C30.0936 84.9281 29.1582 84.9281 28.1509 84.9281C27.6472 84.9281 27.2155 84.7842 26.9277 84.3525C26.9997 82.9854 26.9997 81.5464 26.9997 80.1793ZM59.2338 79.5317C59.4497 79.5317 59.6655 79.5317 59.8814 79.5317C61.968 79.5317 64.0546 79.5317 66.1412 79.5317C66.7168 79.5317 66.7887 79.3878 66.7887 78.8842C66.7887 70.9695 66.7887 63.0549 66.7887 55.1403C66.7887 54.9244 66.7887 54.7086 66.7887 54.4927C64.2704 54.4927 61.7521 54.4927 59.3058 54.4927C59.2338 62.8391 59.2338 71.1854 59.2338 79.5317ZM53.6936 79.5317C53.6936 73.4878 53.6936 67.5159 53.6936 61.5439C51.1753 61.5439 48.657 61.5439 46.2107 61.5439C46.2107 67.5878 46.2107 73.5598 46.2107 79.5317C48.729 79.5317 51.2472 79.5317 53.6936 79.5317ZM40.6704 79.5317C40.6704 75.3586 40.6704 71.2574 40.6704 67.1561C38.1521 67.1561 35.6338 67.1561 33.1875 67.1561C33.1875 71.3293 33.1875 75.4305 33.1875 79.5317C35.7058 79.5317 38.1521 79.5317 40.6704 79.5317Z" fill="#0A8E3C"></path><path d="M79.38 26C79.8837 26.2878 80.3873 26.5756 80.819 26.9354C81.3227 27.439 81.5385 28.0866 81.5385 28.8061C81.5385 31.7561 81.5385 34.778 81.5385 37.728C81.5385 38.5195 81.2507 38.8793 80.4593 38.8793C79.38 38.8793 78.3007 38.8793 77.2215 38.8793C76.43 38.8793 76.0702 38.5915 76.0702 37.8C76.0702 37.0085 76.0702 36.289 76.0702 35.3537C75.8544 35.5695 75.7105 35.7134 75.5666 35.8573C72.9044 38.5195 70.2422 41.1817 67.58 43.8439C66.7885 44.6354 65.9251 44.9951 64.8458 44.9951C62.7593 44.9951 60.6727 44.9951 58.5861 44.9951C58.2263 44.9951 57.9385 45.0671 57.6507 45.4268C54.341 49.0244 50.9593 52.6219 47.6495 56.2915C46.858 57.1549 45.9946 57.5866 44.8434 57.5866C40.7422 57.5866 36.7129 57.5866 32.6117 57.5866C31.4605 57.5866 31.2446 57.3707 31.2446 56.2195C31.2446 55.2122 31.2446 54.2049 31.2446 53.1976C31.2446 52.4061 31.5324 52.1183 32.3958 52.1183C34.0507 52.1183 35.7056 52.1183 37.4324 52.1183C37.5044 52.1183 37.6483 52.1183 37.7202 52.1183C38.2239 52.1902 38.5837 52.55 38.5117 53.0537C38.5117 53.5573 38.1519 53.8451 37.6483 53.8451C36.3532 53.8451 35.058 53.8451 33.7629 53.8451C33.5471 53.8451 33.3312 53.8451 33.0434 53.8451C33.0434 54.4207 33.0434 54.9963 33.0434 55.5719C33.0434 55.6439 33.2593 55.7878 33.4032 55.8598C33.691 55.9317 34.0507 55.8598 34.4105 55.8598C37.9361 55.8598 41.4617 55.8598 44.9154 55.8598C45.491 55.8598 45.9946 55.6439 46.3544 55.2122C49.808 51.3988 53.3337 47.6573 56.7873 43.8439C57.1471 43.4841 57.5068 43.2683 58.0105 43.2683C60.3129 43.2683 62.5434 43.2683 64.8458 43.2683C65.4215 43.2683 65.9251 43.1244 66.3568 42.6927C69.5227 39.4549 72.7605 36.289 75.9263 33.0512C76.0702 32.9073 76.1422 32.7634 76.2861 32.7634C76.5739 32.6195 76.9337 32.4756 77.2934 32.4756C77.7251 32.5476 77.869 32.9073 77.869 33.339C77.869 34.4183 77.869 35.4976 77.869 36.5768C77.869 36.7927 77.869 36.9366 77.869 37.1524C78.5166 37.1524 79.1641 37.1524 79.8117 37.1524C79.8117 36.9366 79.8117 36.7927 79.8117 36.5768C79.8117 34.1305 79.8117 31.6122 79.8117 29.1659C79.8117 28.0866 79.5239 27.7268 78.4446 27.7268C75.9983 27.7268 73.48 27.7268 71.0337 27.7268C70.8178 27.7268 70.6739 27.7268 70.458 27.7268C70.458 28.3744 70.458 29.022 70.458 29.7415C70.8897 29.7415 71.3215 29.7415 71.8251 29.7415C72.6166 29.7415 73.408 29.7415 74.1995 29.7415C74.6312 29.7415 74.991 29.8854 75.2068 30.3171C75.3507 30.7488 75.2068 31.1085 74.919 31.3963C71.7532 34.5622 68.5873 37.728 65.4215 40.8939C65.2056 41.1098 64.7739 41.2537 64.4141 41.2537C62.0397 41.2537 59.6654 41.2537 57.3629 41.2537C56.7873 41.2537 56.3556 41.4695 55.9958 41.8293C52.4702 45.6427 49.0166 49.4561 45.491 53.2695C45.1312 53.6293 44.8434 53.7732 44.3398 53.7732C43.5483 53.7732 42.7568 53.7732 41.9654 53.7732C41.3898 53.7732 41.03 53.4134 41.03 52.9098C41.03 52.4061 41.3898 52.0463 41.9654 52.0463C42.541 52.0463 43.1885 52.0463 43.7641 52.0463C44.1239 52.0463 44.4117 51.9024 44.6276 51.6146C48.0093 47.9451 51.319 44.2756 54.7007 40.6061C55.4202 39.8146 56.2837 39.3829 57.3629 39.4549C59.5215 39.4549 61.68 39.4549 63.8385 39.4549C64.0544 39.4549 64.4141 39.3829 64.558 39.1671C66.9324 36.7927 69.4507 34.2744 71.8971 31.7561C71.969 31.6841 72.041 31.6122 72.1849 31.3963C71.3215 31.3963 70.53 31.3963 69.7385 31.3963C68.9471 31.3963 68.6593 31.1085 68.6593 30.3171C68.6593 29.3098 68.6593 28.3024 68.6593 27.2951C68.6593 26.7915 68.7312 26.2878 69.1629 26C72.5446 26 75.9983 26 79.38 26Z" fill="#0A8E3C"></path></g><defs><clipPath id="clip0_1_289"><rect width="59" height="59" fill="white" transform="translate(27 26)"></rect></clipPath></defs></svg>