<svg xmlns="http://www.w3.org/2000/svg" width="112" height="112" viewBox="0 0 112 112" fill="none"><circle cx="56" cy="56" r="56" fill="white"></circle><circle cx="56" cy="56" r="55.5333" stroke="#0A8E3C" stroke-opacity="0.3" stroke-width="0.933333"></circle><g clip-path="url(#clip0_1_299)"><path d="M56.5794 18C57.0947 18.3436 57.2665 18.859 57.2665 19.4603C57.2665 22.6385 57.2665 25.9026 57.2665 29.0808C57.2665 29.3385 57.2665 29.5103 57.1806 29.7679C57.0088 30.2833 56.6653 30.541 56.1499 30.541C55.6345 30.541 55.205 30.2833 55.1191 29.7679C55.0332 29.5103 55.0332 29.2526 55.0332 29.0808C55.0332 25.9026 55.0332 22.7244 55.0332 19.5462C55.0332 18.859 55.205 18.3436 55.8063 18C56.064 18 56.3217 18 56.5794 18Z" fill="#0A8E3C"></path><path d="M37.4243 65.8448C38.7128 65.4153 39.9153 64.9858 41.2038 64.7282C44.2961 64.041 47.3884 64.3846 50.1371 65.8448C52.1987 66.9615 54.3461 67.4769 56.6653 67.4769C58.641 67.4769 60.6166 67.5628 62.5064 67.6487C65.1692 67.6487 67.3166 68.7653 68.691 71.0846C68.7769 71.1705 68.7769 71.2564 68.8628 71.3423C71.0102 70.3115 73.1576 69.2807 75.391 68.2499C76.1641 67.9064 77.023 67.4769 77.7961 67.1333C80.2871 66.1025 83.2076 66.9615 84.582 69.2807C85.0974 70.0538 85.0115 70.6551 84.2384 71.0846C77.7961 75.2935 71.4397 79.5025 64.9115 83.5397C62.5923 85 59.9294 85.3435 57.1807 84.9141C54.8615 84.5705 52.6282 83.8833 50.3089 83.282C47.5602 82.5089 44.8115 81.7358 42.0628 80.9628C40.9461 80.6192 39.9153 80.791 38.8846 81.3064C38.541 81.4782 38.2833 81.65 37.9397 81.8217C37.1666 82.1653 36.6512 82.5089 36.7371 83.4538C36.7371 84.0551 36.3077 84.3987 35.7064 84.3987C32.7859 84.3128 29.9512 84.3128 27.0307 84.141C26.2577 84.141 25.9141 83.6256 25.9141 82.7666C26 79.3307 26.0859 75.8089 26.1718 72.373C26.2577 69.7102 26.3435 67.0474 26.4294 64.2987C26.4294 63.0961 26.773 62.7525 27.9756 62.8384C30.5525 62.9243 33.2153 62.9243 35.7923 63.0102C37.0807 63.0102 37.3384 63.4397 37.3384 64.6423C37.4243 65.0717 37.4243 65.4153 37.4243 65.8448ZM82.2628 69.7102C81.232 68.6794 79.8576 68.5076 78.4833 69.1948C75.7346 70.4833 73.0718 71.7717 70.323 73.0602C69.8076 73.3179 69.6359 73.4897 69.7218 74.091C69.8935 75.2076 69.55 75.8948 68.0897 75.8948C64.2243 75.723 60.3589 75.6371 56.4935 75.5512C56.15 75.5512 55.8064 75.5512 55.4628 75.4653C54.8615 75.3794 54.5179 74.9499 54.5179 74.3487C54.5179 73.7474 54.9474 73.3179 55.5487 73.3179C55.7205 73.3179 55.9782 73.3179 56.15 73.3179C59.6718 73.4038 63.1935 73.4897 66.6294 73.5756C66.8871 73.5756 67.1448 73.5756 67.4025 73.5756C67.0589 71.514 65.1692 69.882 63.1077 69.7961C61.8192 69.7102 60.6166 69.7102 59.3282 69.7102C57.782 69.6243 56.15 69.5384 54.6038 69.5384C52.6282 69.4525 50.9102 68.5935 49.1923 67.8205C45.3269 66.0166 41.5474 66.2743 37.8538 68.3358C37.5102 68.5935 37.3384 68.7653 37.3384 69.2807C37.2525 72.7166 37.1666 76.0666 37.0807 79.5025C37.0807 79.5884 37.0807 79.7602 37.1666 79.932C37.5102 79.7602 37.7679 79.5884 38.1115 79.4166C39.6577 78.5576 41.2897 78.3858 43.0077 78.9012C45.1551 79.5025 47.3884 80.1038 49.5359 80.7051C52.1128 81.3923 54.6897 82.2512 57.2666 82.6807C59.9294 83.1102 62.5064 82.5948 64.9115 81.0487C68.2615 78.8153 71.6115 76.6679 74.9615 74.5205C77.2807 72.8884 79.7718 71.3423 82.2628 69.7102ZM34.7615 81.9935C34.9333 76.4961 35.1051 70.8269 35.191 65.1576C32.9577 65.1576 30.8961 65.1576 28.6628 65.1576C28.491 70.741 28.3192 76.3243 28.2333 81.9935C30.3807 81.9935 32.5282 81.9935 34.7615 81.9935Z" fill="#0A8E3C"></path><path d="M56.1498 64.4705C47.3883 64.4705 40.2588 57.2551 40.2588 48.4936C40.2588 39.732 47.4742 32.6025 56.2357 32.6025C64.9973 32.6025 72.1267 39.8179 72.1267 48.5795C72.0408 57.341 64.9114 64.4705 56.1498 64.4705ZM56.1498 62.2372C63.7088 62.2372 69.8934 56.0525 69.8934 48.4936C69.8934 40.9346 63.7947 34.75 56.2357 34.75C48.6767 34.75 42.4921 40.9346 42.4921 48.4936C42.4921 56.1384 48.5908 62.2372 56.1498 62.2372Z" fill="#0A8E3C"></path><path d="M63.3653 27.0192C63.3653 26.2462 63.3653 25.4731 63.3653 24.7C63.3653 23.9269 63.7948 23.4974 64.482 23.4974C65.0833 23.4974 65.5128 23.9269 65.5128 24.7C65.5128 26.2462 65.5128 27.7923 65.5128 29.3385C65.5128 30.1115 65.0833 30.6269 64.3961 30.6269C63.7089 30.6269 63.3653 30.1115 63.3653 29.3385C63.2794 28.5654 63.3653 27.7923 63.3653 27.0192Z" fill="#0A8E3C"></path><path d="M49.0205 27.1051C49.0205 27.8782 49.0205 28.6513 49.0205 29.4244C49.0205 30.1974 48.591 30.6269 47.9038 30.6269C47.3025 30.6269 46.873 30.1115 46.873 29.4244C46.873 27.8782 46.873 26.2462 46.873 24.7C46.873 23.9269 47.3025 23.4974 47.9897 23.4974C48.591 23.4974 49.0205 23.9269 49.0205 24.7C49.0205 25.4731 49.0205 26.2462 49.0205 27.1051Z" fill="#0A8E3C"></path><path d="M53.6593 44.8001C53.6593 46.0885 54.5182 47.1193 55.8067 47.2911C56.3221 47.377 56.8375 47.377 57.267 47.4629C59.2426 47.9783 60.7029 49.6962 60.7888 51.7578C60.8746 53.7334 59.758 55.6231 57.8682 56.3103C57.1811 56.568 57.0093 56.8257 57.0952 57.5129C57.1811 58.0283 56.9234 58.4578 56.408 58.6295C56.0644 58.7154 55.549 58.7154 55.3772 58.4578C55.1195 58.2001 54.9477 57.7706 54.9477 57.3411C54.9477 56.7398 54.7759 56.4821 54.1746 56.2244C52.5426 55.4513 51.5977 54.077 51.4259 52.2731C51.34 51.5001 51.7695 50.8988 52.4567 50.8988C53.1439 50.8988 53.5734 51.3283 53.6593 52.1013C53.8311 53.5616 54.7759 54.4206 56.2362 54.4206C57.5246 54.4206 58.5554 53.3898 58.6413 52.1013C58.7272 50.727 57.7823 49.6962 56.408 49.4385C55.549 49.2667 54.69 49.1808 54.0029 48.8372C52.2849 47.9783 51.4259 46.4321 51.5118 44.5424C51.5977 42.6526 52.6285 41.1924 54.4323 40.4193C54.8618 40.2475 55.0336 39.9898 54.9477 39.5603C54.9477 39.3885 54.9477 39.1308 54.9477 38.959C55.0336 38.4436 55.4631 38.0142 56.0644 38.0142C56.5798 38.0142 57.1811 38.4436 57.0952 38.959C57.0093 39.818 57.4388 40.1616 58.1259 40.4193C59.758 41.1065 60.617 42.4808 60.7888 44.1988C60.8746 45.0578 60.4452 45.659 59.758 45.659C59.0708 45.7449 58.6413 45.2295 58.5554 44.3706C58.3836 42.9962 57.267 41.9654 55.9785 42.0513C54.7759 42.4808 53.7452 43.5116 53.6593 44.8001Z" fill="#0A8E3C"></path></g><defs><clipPath id="clip0_1_299"><rect width="59.0115" height="67" fill="white" transform="translate(26 18)"></rect></clipPath></defs></svg>