<svg xmlns="http://www.w3.org/2000/svg" width="209" height="97" viewBox="0 0 209 97" fill="none"><path d="M7.14691 79.2676C5.95308 79.2739 4.77879 78.9645 3.74309 78.3707C2.70739 77.7769 1.8471 76.9199 1.24943 75.8864C0.651761 74.8529 0.337965 73.6798 0.339852 72.4859C0.34174 71.2921 0.659244 70.12 1.26018 69.0884C1.86111 68.0568 2.72411 67.2024 3.76168 66.6119C4.79925 66.0214 5.97451 65.7157 7.16832 65.7258C8.36213 65.736 9.53203 66.0615 10.5594 66.6696C11.5869 67.2776 12.4352 68.1465 13.0186 69.1881C11.8783 69.7856 11.7851 69.8305 10.5132 70.4729C10.1695 69.8855 9.67781 69.3984 9.08716 69.0602C8.4965 68.722 7.82752 68.5446 7.14691 68.5457C6.11478 68.5751 5.13478 69.0057 4.41512 69.7462C3.69547 70.4866 3.29287 71.4785 3.29287 72.511C3.29287 73.5435 3.69547 74.5354 4.41512 75.2758C5.13478 76.0163 6.11478 76.4469 7.14691 76.4763C7.86132 76.4829 8.56378 76.2928 9.17736 75.9268C9.79094 75.5609 10.292 75.0331 10.6256 74.4013C11.9104 75.0437 11.9361 75.1304 13.131 75.6861C12.557 76.7737 11.6954 77.6829 10.6402 78.3144C9.58501 78.946 8.37665 79.2757 7.14691 79.2676Z" fill="#0DAF4B"></path><path d="M13.6772 79.2323L19.7352 65.8958H22.6903L28.6584 79.2323H25.806L24.4955 76.2772H17.7502L16.3465 79.2323H13.6772ZM21.2513 68.4012L19.0029 73.563H23.4355L21.2674 68.4012H21.2513Z" fill="#0DAF4B"></path><path d="M30.0425 65.8765H36.0651C39.4121 65.8765 40.6841 67.99 40.6841 70.1614C40.6841 72.3327 39.3993 74.4431 36.0651 74.4431H32.9783V79.2323H30.0425V65.8765ZM32.9783 72.1625H35.2621C36.608 72.1625 37.8318 71.8606 37.8318 70.1614C37.8318 68.4622 36.5983 68.1602 35.2621 68.1602H32.9783V72.1625Z" fill="#0DAF4B"></path><path d="M42.5088 65.8765H45.4446V79.2323H42.5088V65.8765Z" fill="#0DAF4B"></path><path d="M51.2903 68.3466H47.0439V65.8958H58.434V68.3658H54.2261V79.2323H51.2903V68.3466Z" fill="#0DAF4B"></path><path d="M58.8486 79.2323L64.9098 65.8958H67.8649L73.8297 79.2323H70.9871L69.6765 76.2772H62.9312L61.5307 79.2323H58.8486ZM66.4227 68.4012L64.1743 73.563H68.6037L66.4355 68.4012H66.4227Z" fill="#0DAF4B"></path><path d="M74.9507 79.139V65.8218H77.8415V76.6689H84.6865V79.139H74.9507Z" fill="#0DAF4B"></path><path d="M100.072 74.3017L103.814 79.258H100.223L96.8568 74.4398H95.4146V79.258H92.4595V65.8765H98.4821C101.848 65.8765 103.14 67.99 103.14 70.1614C103.14 71.973 102.176 73.8071 99.9597 74.2921L100.072 74.3017ZM95.4146 68.1699V72.1882H97.6984C99.0988 72.1882 100.268 71.867 100.268 70.171C100.268 68.475 99.1053 68.1699 97.6984 68.1699H95.4146Z" fill="#0DAF4B"></path><path d="M108.472 76.7428H116.01V79.2129H105.629V65.8218H115.374V68.2886H108.472V71.3016H114.575V73.9001H108.472V76.7428Z" fill="#0DAF4B"></path><path d="M120.125 75.2652C120.424 77.0255 121.994 77.2664 123.08 77.2664C124.108 77.2664 125.679 76.9676 125.679 75.6025C125.679 72.7598 117.732 74.5939 117.732 69.5991C117.732 66.8496 120.302 65.5583 122.724 65.5583C125.512 65.5583 128.075 66.7757 128.075 69.8593L125.232 69.4482C124.876 67.8967 123.511 67.8421 122.595 67.8421C121.68 67.8421 120.562 68.234 120.562 69.355C120.562 70.3476 121.204 70.5724 124.545 71.3754C125.537 71.6195 128.509 72.2363 128.509 75.2652C128.509 77.716 126.604 79.5501 122.955 79.5501C119.961 79.5501 117.27 78.0886 117.27 74.7995L120.125 75.2652Z" fill="#0DAF4B"></path><path d="M136.211 79.3992C134.844 79.398 133.508 78.9912 132.372 78.2305C131.235 77.4697 130.35 76.3892 129.829 75.1254C129.307 73.8617 129.171 72.4715 129.439 71.1308C129.708 69.7901 130.368 68.5591 131.335 67.5934C132.303 66.6277 133.536 65.9708 134.877 65.7056C136.219 65.4405 137.608 65.5792 138.871 66.104C140.134 66.6289 141.212 67.5164 141.97 68.6542C142.728 69.7921 143.132 71.1292 143.13 72.4965C143.13 73.4044 142.952 74.3035 142.604 75.1423C142.256 75.981 141.746 76.7428 141.103 77.3841C140.461 78.0254 139.698 78.5335 138.858 78.8793C138.019 79.2251 137.119 79.4018 136.211 79.3992ZM132.125 72.4965C132.132 73.2973 132.376 74.0781 132.826 74.7408C133.275 75.4034 133.911 75.9183 134.652 76.2207C135.394 76.523 136.208 76.5993 136.993 76.44C137.778 76.2807 138.498 75.8928 139.063 75.3252C139.628 74.7576 140.012 74.0357 140.168 73.2501C140.324 72.4646 140.243 71.6506 139.938 70.9105C139.632 70.1704 139.114 69.5372 138.449 69.0907C137.784 68.6442 137.002 68.4043 136.201 68.4011C135.12 68.4104 134.086 68.8454 133.323 69.612C132.56 70.3786 132.13 71.4149 132.125 72.4965Z" fill="#0DAF4B"></path><path d="M156.168 74.1797C156.168 77.79 154.035 79.5503 150.463 79.5503C146.891 79.5503 144.778 77.8286 144.778 74.1797V65.8765H147.714V74.1797C147.714 75.6412 148.089 77.0705 150.463 77.0705C152.557 77.0705 153.232 76.1744 153.232 74.1797V65.8765H156.168V74.1797Z" fill="#0DAF4B"></path><path d="M166.27 74.3017L170.009 79.258H166.418L163.051 74.4398H161.612V79.258H158.657V65.8765H164.68C168.046 65.8765 169.337 67.99 169.337 70.1614C169.337 71.973 168.374 73.8071 166.157 74.2921L166.27 74.3017ZM161.612 68.1699V72.1882H163.893C165.297 72.1882 166.463 71.867 166.463 70.171C166.463 68.475 165.303 68.1699 163.893 68.1699H161.612Z" fill="#0DAF4B"></path><path d="M178.222 79.2676C177.028 79.2739 175.854 78.9645 174.818 78.3707C173.783 77.7769 172.922 76.9199 172.325 75.8864C171.727 74.8529 171.413 73.6798 171.415 72.4859C171.417 71.2921 171.734 70.12 172.335 69.0884C172.936 68.0568 173.799 67.2024 174.837 66.6119C175.874 66.0214 177.05 65.7157 178.244 65.7258C179.437 65.736 180.607 66.0615 181.635 66.6696C182.662 67.2776 183.51 68.1465 184.094 69.1881C182.953 69.7856 182.86 69.8305 181.588 70.4729C181.245 69.8855 180.753 69.3984 180.162 69.0602C179.572 68.722 178.903 68.5446 178.222 68.5457C177.19 68.5751 176.21 69.0057 175.49 69.7462C174.771 70.4866 174.368 71.4785 174.368 72.511C174.368 73.5435 174.771 74.5354 175.49 75.2758C176.21 76.0163 177.19 76.4469 178.222 76.4763C178.936 76.4826 179.639 76.2923 180.252 75.9264C180.866 75.5604 181.367 75.0328 181.701 74.4013C182.986 75.0437 183.011 75.1304 184.206 75.6861C183.632 76.7737 182.771 77.6829 181.715 78.3144C180.66 78.946 179.452 79.2757 178.222 79.2676Z" fill="#0DAF4B"></path><path d="M188.529 76.7428H196.065V79.2129H185.687V65.8218H195.429V68.2886H188.529V71.3016H194.632V73.9001H188.529V76.7428Z" fill="#0DAF4B"></path><path d="M200.183 75.2652C200.482 77.0255 202.052 77.2664 203.138 77.2664C204.166 77.2664 205.737 76.9676 205.737 75.6025C205.737 72.7598 197.787 74.5939 197.787 69.5991C197.787 66.8496 200.356 65.5583 202.782 65.5583C205.57 65.5583 208.13 66.7757 208.13 69.8593L205.287 69.4482C204.934 67.8967 203.569 67.8421 202.65 67.8421C201.731 67.8421 200.629 68.234 200.629 69.355C200.629 70.3476 201.272 70.5724 204.616 71.3754C205.605 71.6195 208.579 72.2363 208.579 75.2652C208.579 77.716 206.671 79.5501 203.026 79.5501C200.032 79.5501 197.34 78.0886 197.34 74.7995L200.183 75.2652Z" fill="#0DAF4B"></path><path d="M48.7334 44.153L62.7477 13.3171H69.583L83.3949 44.153H76.8069L73.7779 37.3178H58.164L54.9198 44.153H48.7334ZM66.252 19.0989L61.0613 31.0381H71.3143L66.297 19.1085L66.252 19.0989Z" fill="#231F20"></path><path d="M86.5845 13.2722H93.3748V44.1563H86.5845V13.2722Z" fill="#231F20"></path><path d="M116.952 32.7342L125.602 44.1949H117.295L109.512 33.0779H106.182V44.1949H99.3623V13.2722H113.29C121.076 13.2722 124.06 18.161 124.06 23.1783C124.06 27.3732 121.853 31.6132 116.708 32.7374L116.952 32.7342ZM106.182 18.5464V27.8615H111.459C114.703 27.8615 117.382 27.1259 117.382 23.1911C117.382 19.1664 114.703 18.5625 111.459 18.5625L106.182 18.5464Z" fill="#231F20"></path><path d="M144.331 44.5417C141.17 44.5379 138.081 43.5967 135.454 41.8371C132.828 40.0776 130.782 37.5787 129.576 34.6565C128.37 31.7342 128.058 28.52 128.678 25.4202C129.299 22.3204 130.825 19.4743 133.063 17.2418C135.302 15.0094 138.152 13.4908 141.253 12.8782C144.355 12.2656 147.568 12.5864 150.487 13.8002C153.406 15.0139 155.9 17.066 157.652 19.697C159.405 22.328 160.338 25.4196 160.334 28.581C160.335 30.6808 159.922 32.7603 159.117 34.7C158.313 36.6398 157.134 38.4017 155.647 39.8846C154.16 41.3675 152.395 42.5422 150.453 43.3414C148.512 44.1406 146.431 44.5485 144.331 44.5417ZM134.904 28.581C134.904 29.8135 135.147 31.034 135.618 32.1727C136.09 33.3114 136.781 34.3461 137.653 35.2176C138.524 36.0892 139.559 36.7805 140.698 37.2522C141.836 37.7239 143.057 37.9666 144.289 37.9666C145.522 37.9666 146.742 37.7239 147.881 37.2522C149.02 36.7805 150.055 36.0892 150.926 35.2176C151.798 34.3461 152.489 33.3114 152.961 32.1727C153.432 31.034 153.675 29.8135 153.675 28.581C153.675 23.4416 149.48 19.1085 144.334 19.1085C141.835 19.1387 139.448 20.1477 137.685 21.9188C135.921 23.6899 134.923 26.0818 134.904 28.581Z" fill="#231F20"></path><path d="M168.862 34.9827C169.556 39.0492 173.188 39.6113 175.697 39.6113C178.074 39.6113 181.71 38.9175 181.71 35.7568C181.71 29.1817 163.324 33.4216 163.324 21.8742C163.324 15.5143 169.295 12.5303 174.888 12.5303C181.331 12.5303 187.257 15.3408 187.257 22.4877L180.682 21.5241C179.863 17.933 176.706 17.8045 174.579 17.8045C172.453 17.8045 169.899 18.7328 169.899 21.3024C169.899 23.5927 171.37 24.113 179.115 25.9728C181.405 26.5349 188.285 27.9643 188.285 34.9666C188.285 40.6327 183.872 44.8726 175.437 44.8726C168.515 44.8726 162.287 41.4967 162.287 33.8841L168.862 34.9827Z" fill="#231F20"></path><path d="M26.2394 23.7597V13.2241H19.3174V44.15H26.2394V41.0792V30.7428V23.7597Z" fill="#0DAF4B"></path><path d="M35.1046 24.8968L43.7226 13.2241H35.2877L26.2393 24.8968V35.2365L30.2608 29.6571L48.7334 57.8045L53.5098 51.2583L35.1046 24.8968Z" fill="#0DAF4B"></path><path d="M48.7336 57.8045H208.823V0H0V57.8045H43.514L39.8747 51.2583H5.60186V5.91664H203.071V51.2583H53.5099" fill="#0DAF4B"></path><path d="M26.4163 90.5452H0.758301V91.9296H26.4163V90.5452Z" fill="#231F20"></path><path d="M209 90.5452H183.342V91.9296H209V90.5452Z" fill="#231F20"></path><path d="M40.7614 86.0964H41.4809L40.4884 93.163H44.0859L43.9992 93.8054H39.6821L40.7614 86.0964Z" fill="#231F20"></path><path d="M50.6124 92.8644C50.333 93.2253 49.9674 93.5103 49.5492 93.6931C49.1475 93.8613 48.7159 93.9466 48.2804 93.9436C47.9311 93.9498 47.5843 93.883 47.2622 93.7477C46.9772 93.6252 46.7259 93.4356 46.5298 93.1952C46.3344 92.9497 46.1972 92.663 46.1283 92.3569C46.0504 92.0044 46.0405 91.6402 46.0994 91.284C46.1908 90.5642 46.5318 89.8992 47.063 89.405C47.3181 89.1683 47.6142 88.98 47.9367 88.8493C48.2665 88.7127 48.6205 88.6439 48.9774 88.6469C49.3183 88.6385 49.6566 88.7077 49.9668 88.8493C50.2298 88.9711 50.4599 89.1539 50.6381 89.3825C50.8088 89.6066 50.9283 89.8653 50.9882 90.1405C51.0498 90.4234 51.0585 90.7153 51.0139 91.0014L50.9497 91.4575H46.7322C46.7083 91.6333 46.7083 91.8116 46.7322 91.9875C46.7598 92.2084 46.8319 92.4215 46.9442 92.6138C47.0692 92.8264 47.2432 93.0059 47.4517 93.1374C47.7273 93.2964 48.043 93.3723 48.3607 93.3558C48.7107 93.3522 49.0555 93.2699 49.3693 93.1149C49.6888 92.9707 49.9679 92.7501 50.182 92.4725L50.6124 92.8644ZM50.3843 90.8697C50.4151 90.6548 50.3998 90.4358 50.3394 90.2273C50.2837 90.0344 50.1836 89.8573 50.0471 89.7101C49.904 89.5587 49.7312 89.4385 49.5396 89.3568C49.3365 89.27 49.118 89.2252 48.8971 89.2251C48.5761 89.2168 48.2585 89.2921 47.9753 89.4435C47.7345 89.5732 47.5173 89.7426 47.3329 89.9446C47.1826 90.1093 47.0562 90.2942 46.957 90.4939C46.896 90.6094 46.8506 90.7325 46.8221 90.86L50.3843 90.8697Z" fill="#231F20"></path><path d="M53.1729 88.7786H53.9148L54.9941 93.1052L57.2425 88.7786H57.9074L55.2254 93.8119H54.5508L53.1729 88.7786Z" fill="#231F20"></path><path d="M63.8975 92.8644C63.6182 93.2253 63.2526 93.5103 62.8343 93.6931C62.4327 93.8613 62.0011 93.9466 61.5656 93.9436C61.2162 93.9498 60.8695 93.883 60.5473 93.7477C60.2623 93.6252 60.0111 93.4356 59.815 93.1952C59.6183 92.9505 59.4809 92.6635 59.4135 92.3569C59.3355 92.0044 59.3257 91.6402 59.3846 91.284C59.4759 90.5642 59.817 89.8992 60.3482 89.405C60.6033 89.1683 60.8994 88.98 61.2219 88.8493C61.5517 88.7127 61.9056 88.6439 62.2626 88.6469C62.6034 88.6385 62.9417 88.7077 63.2519 88.8493C63.5149 88.9711 63.7451 89.1539 63.9232 89.3825C64.0939 89.6066 64.2134 89.8653 64.2734 90.1405C64.3349 90.4234 64.3436 90.7153 64.299 91.0014L64.2348 91.4575H60.0174C59.9934 91.6333 59.9934 91.8116 60.0174 91.9875C60.045 92.2084 60.1171 92.4215 60.2294 92.6138C60.3543 92.8264 60.5283 93.0059 60.7369 93.1374C61.0124 93.2964 61.3281 93.3723 61.6459 93.3558C61.9959 93.3522 62.3406 93.2699 62.6545 93.1149C62.974 92.9707 63.2531 92.7501 63.4671 92.4725L63.8975 92.8644ZM63.6695 90.8697C63.7003 90.6548 63.6849 90.4358 63.6245 90.2273C63.5688 90.0344 63.4687 89.8573 63.3322 89.7101C63.1891 89.5587 63.0164 89.4385 62.8247 89.3568C62.6167 89.2679 62.3925 89.2231 62.1662 89.2251C61.8452 89.2168 61.5275 89.2921 61.2444 89.4435C61.0036 89.5732 60.7864 89.7426 60.6019 89.9446C60.4517 90.1093 60.3253 90.2942 60.2261 90.4939C60.1651 90.6094 60.1197 90.7325 60.0912 90.86L63.6695 90.8697Z" fill="#231F20"></path><path d="M66.9716 90.1951C66.9716 90.0987 67.0005 89.9863 67.0133 89.8514C67.0262 89.7165 67.0422 89.5816 67.0519 89.4435C67.0615 89.3054 67.0744 89.1737 67.0872 89.0548C67.1001 88.936 67.1065 88.8428 67.1129 88.7786H67.7553C67.7393 88.9649 67.72 89.148 67.7007 89.3214C67.6821 89.4328 67.6746 89.5458 67.6782 89.6587C67.8791 89.3714 68.1318 89.1241 68.4234 88.9296C68.7208 88.7378 69.0687 88.6393 69.4224 88.6469C69.5474 88.6489 69.6716 88.6672 69.7918 88.7015L69.628 89.3439C69.5519 89.3154 69.4715 89.3002 69.3903 89.2989C69.132 89.2949 68.8755 89.3419 68.6354 89.4371C68.4242 89.524 68.2321 89.6517 68.0701 89.8129C67.9091 89.9751 67.7795 90.1657 67.6879 90.375C67.5915 90.5952 67.5255 90.8275 67.4919 91.0656L67.1097 93.8119H66.4673L66.9716 90.1951Z" fill="#231F20"></path><path d="M75.3969 91.6984C75.3584 91.9457 75.3294 92.1673 75.3037 92.3633C75.2781 92.5592 75.2588 92.7391 75.2427 92.9061C75.2267 93.0732 75.217 93.2273 75.2106 93.3751C75.2042 93.5228 75.2106 93.6674 75.2106 93.8119H74.6003C74.5907 93.6815 74.5907 93.5505 74.6003 93.42C74.6066 93.2781 74.6205 93.1365 74.6421 92.9961H74.6196C74.4151 93.2971 74.1407 93.544 73.8198 93.7156C73.2767 93.9579 72.6675 94.0089 72.0917 93.8601C71.8982 93.8103 71.7168 93.7218 71.5585 93.5999C71.4042 93.4796 71.2854 93.3198 71.2148 93.1374C71.1352 92.9174 71.1141 92.6805 71.1537 92.45C71.1855 92.1045 71.3365 91.7808 71.581 91.5346C71.809 91.3112 72.0815 91.1383 72.3808 91.0271C72.6847 90.9136 73.0022 90.8402 73.3251 90.8086C73.6463 90.7765 73.9386 90.7605 74.1859 90.7605H74.9504L74.9954 90.4553C75.0376 90.2888 75.0345 90.1141 74.9865 89.9492C74.9385 89.7843 74.8473 89.6352 74.7224 89.5174C74.4424 89.3169 74.1027 89.2172 73.7587 89.2347C73.1689 89.2356 72.5965 89.4347 72.1334 89.8L71.8122 89.3536C72.0964 89.1174 72.4236 88.9385 72.7758 88.8268C73.1134 88.7129 73.4667 88.6522 73.823 88.6469C74.3269 88.6132 74.8255 88.7665 75.2234 89.0773C75.5447 89.3621 75.6624 89.8247 75.5768 90.4649L75.3969 91.6984ZM74.141 91.284C73.8748 91.2805 73.6087 91.2944 73.3444 91.3258C73.0973 91.3553 72.8553 91.418 72.6249 91.5121C72.4218 91.5907 72.2363 91.7086 72.0788 91.859C71.9299 92.005 71.8358 92.1978 71.8122 92.405C71.7886 92.5425 71.8041 92.6839 71.8572 92.813C71.9043 92.9289 71.9807 93.0307 72.0788 93.1085C72.1821 93.1864 72.2985 93.2451 72.4225 93.2819C72.5538 93.3215 72.6901 93.3421 72.8272 93.343C73.128 93.3516 73.4274 93.2991 73.7073 93.1888C73.9309 93.0987 74.1333 92.963 74.3016 92.7905C74.4566 92.6305 74.5789 92.4417 74.6613 92.2348C74.7441 92.034 74.8013 91.8235 74.8316 91.6084L74.8733 91.2712L74.141 91.284Z" fill="#231F20"></path><path d="M83.0354 93.4842C82.979 94.0183 82.8116 94.5347 82.544 95.0003C82.339 95.3499 82.0646 95.6538 81.7378 95.8933C81.4597 96.0971 81.1426 96.2414 80.8063 96.3173C80.5222 96.3861 80.2313 96.4227 79.939 96.4265C79.4591 96.4331 78.9831 96.339 78.5417 96.1502C78.1476 95.9958 77.811 95.7231 77.5781 95.3697L78.1627 94.8911C78.3324 95.2066 78.5994 95.459 78.924 95.6106C79.2628 95.7645 79.6312 95.8424 80.0032 95.8387C80.2958 95.8465 80.5873 95.8019 80.8641 95.707C81.0879 95.6303 81.2966 95.515 81.4808 95.3665C81.6436 95.232 81.7854 95.0739 81.9016 94.8975C82.0053 94.7363 82.0904 94.5639 82.1553 94.3836C82.2155 94.2263 82.2617 94.064 82.2934 93.8986C82.3224 93.7476 82.3448 93.6223 82.3577 93.5292L82.4573 92.8322H82.4348C82.2039 93.1346 81.9074 93.3806 81.5675 93.5517C81.2028 93.7298 80.801 93.8189 80.3951 93.8118C80.0453 93.8159 79.6985 93.747 79.3769 93.6095C79.0798 93.4841 78.8143 93.2943 78.5996 93.0538C78.387 92.8164 78.2281 92.5359 78.1338 92.2315C78.035 91.9071 78.0108 91.5644 78.0632 91.2293C78.1138 90.8748 78.235 90.534 78.4197 90.2272C78.6059 89.9124 78.845 89.6321 79.1263 89.3985C79.4055 89.1652 79.7199 88.9776 80.0578 88.8428C80.399 88.7061 80.7632 88.6364 81.1307 88.6372C81.5145 88.6244 81.8949 88.7142 82.2324 88.8974C82.5224 89.0636 82.7544 89.3147 82.8973 89.6169H82.9198L83.0387 88.7689H83.6811L83.0354 93.4842ZM82.7142 91.2358C82.7506 90.9748 82.7331 90.7092 82.6628 90.4552C82.6068 90.2192 82.4969 89.9993 82.3416 89.8128C82.1795 89.6349 81.9813 89.4937 81.7603 89.3985C81.5245 89.2907 81.2678 89.2369 81.0086 89.2411C80.7342 89.2401 80.4624 89.2936 80.2088 89.3985C79.9536 89.5015 79.717 89.6458 79.5086 89.8257C79.3004 90.0083 79.1254 90.2257 78.9914 90.4681C78.8545 90.7087 78.7661 90.9739 78.7313 91.2486C78.695 91.5094 78.7114 91.7748 78.7794 92.0291C78.8429 92.2656 78.9581 92.485 79.1167 92.6716C79.2754 92.8523 79.4702 92.9978 79.6885 93.0988C79.9259 93.2047 80.1833 93.2584 80.4433 93.2562C80.7175 93.2552 80.989 93.2018 81.2431 93.0988C81.4973 92.9956 81.7328 92.8513 81.9401 92.6716C82.1492 92.4897 82.3243 92.2722 82.4573 92.0291C82.5962 91.7822 82.6856 91.5105 82.7207 91.2293L82.7142 91.2358Z" fill="#231F20"></path><path d="M86.4914 88.7784H87.1339L86.4368 93.8117H85.7944L86.4914 88.7784ZM86.6103 86.7837C86.6318 86.6489 86.6987 86.5254 86.7998 86.4336C86.8998 86.3422 87.0305 86.2917 87.166 86.2923C87.2265 86.2915 87.2865 86.3038 87.3419 86.3281C87.3973 86.3525 87.4468 86.3885 87.4872 86.4336C87.5286 86.4808 87.5586 86.537 87.5748 86.5978C87.5909 86.6585 87.5928 86.7221 87.5803 86.7837C87.5745 86.8508 87.5554 86.9161 87.5239 86.9757C87.4925 87.0353 87.4494 87.088 87.3973 87.1306C87.2953 87.223 87.1622 87.2735 87.0247 87.272C86.9639 87.2743 86.9034 87.2627 86.8478 87.2382C86.7922 87.2138 86.7428 87.177 86.7034 87.1306C86.6646 87.0825 86.6362 87.0268 86.6202 86.967C86.6041 86.9073 86.6008 86.8448 86.6103 86.7837Z" fill="#231F20"></path><path d="M89.8898 90.1951C89.9059 90.0988 89.9187 89.9863 89.9348 89.8514L89.9733 89.4435C89.9733 89.3054 89.9926 89.1737 90.0054 89.0548C90.0183 88.936 90.0247 88.8428 90.0311 88.7786H90.6736C90.6575 88.9649 90.6414 89.148 90.6189 89.3214C90.6004 89.4329 90.5928 89.5458 90.5965 89.6587H90.6286C90.8173 89.3634 91.0753 89.1186 91.3802 88.9456C91.5457 88.8529 91.7214 88.7796 91.9038 88.7272C92.095 88.6729 92.2928 88.6459 92.4916 88.6469C92.8144 88.6321 93.136 88.6948 93.4295 88.83C93.6453 88.938 93.825 89.1066 93.9467 89.315C94.0626 89.5287 94.1285 89.766 94.1394 90.0088C94.1524 90.278 94.1417 90.5478 94.1073 90.8151L93.6929 93.8119H93.0505L93.4649 90.8472C93.4929 90.6504 93.5036 90.4516 93.497 90.2529C93.4938 90.0742 93.4533 89.898 93.3781 89.7358C93.3081 89.5857 93.1966 89.4586 93.0569 89.3696C92.8683 89.2701 92.6563 89.2235 92.4434 89.2347C92.2054 89.2343 91.9693 89.2767 91.7464 89.36C91.5188 89.4441 91.3111 89.5742 91.1361 89.7422C90.9436 89.9267 90.7858 90.1443 90.6703 90.3846C90.5357 90.6723 90.4458 90.9788 90.4037 91.2937L90.0472 93.8119H89.4048L89.8898 90.1951Z" fill="#231F20"></path><path d="M101.64 93.4841C101.583 94.0182 101.416 94.5346 101.148 95.0002C100.942 95.349 100.668 95.6527 100.342 95.8932C100.064 96.0964 99.7467 96.2407 99.4105 96.3171C99.1264 96.3856 98.8355 96.4222 98.5433 96.4264C98.0623 96.4326 97.5854 96.3386 97.1428 96.1501C96.7498 95.9939 96.4136 95.7216 96.1792 95.3696L96.7927 94.891C96.9616 95.2071 97.2288 95.4596 97.554 95.6105C97.8927 95.7644 98.2611 95.8423 98.6332 95.8385C98.9257 95.8461 99.2172 95.8015 99.4941 95.7069C99.7179 95.6302 99.9266 95.5149 100.111 95.3664C100.273 95.2318 100.413 95.0737 100.528 94.8974C100.633 94.7362 100.719 94.5639 100.785 94.3835C100.843 94.2256 100.888 94.0634 100.92 93.8985C100.949 93.7475 100.972 93.6222 100.988 93.5291L101.084 92.832H101.065C100.833 93.1338 100.537 93.3797 100.198 93.5515C99.8327 93.7297 99.431 93.8188 99.0251 93.8117C98.6753 93.8158 98.3285 93.7469 98.0069 93.6094C97.7093 93.4833 97.4429 93.2936 97.2263 93.0537C97.0157 92.8154 96.8581 92.5351 96.7638 92.2314C96.6638 91.9071 96.6397 91.5643 96.6931 91.2292C96.7441 90.8753 96.8642 90.5347 97.0465 90.227C97.2309 89.9176 97.4654 89.6408 97.7403 89.408C98.019 89.174 98.3335 88.9864 98.6718 88.8523C99.0128 88.7154 99.3771 88.6456 99.7446 88.6467C100.128 88.6339 100.509 88.7237 100.846 88.9069C101.135 89.0749 101.367 89.3255 101.511 89.6264H101.531L101.653 88.7784H102.295L101.64 93.4841ZM101.319 91.2356C101.358 90.975 101.342 90.7089 101.27 90.4551C101.21 90.2176 101.094 89.9976 100.933 89.8127C100.768 89.6247 100.565 89.475 100.336 89.374C100.107 89.2731 99.8595 89.2233 99.6097 89.2281C99.3343 89.2275 99.0615 89.281 98.8067 89.3855C98.5528 89.4894 98.3174 89.6337 98.1097 89.8127C97.9015 89.9954 97.7265 90.2127 97.5925 90.4551C97.4556 90.6958 97.3672 90.961 97.3323 91.2356C97.2928 91.4963 97.3092 91.7624 97.3805 92.0162C97.4413 92.2537 97.5568 92.4737 97.7178 92.6586C97.8765 92.8393 98.0713 92.9848 98.2895 93.0858C98.5257 93.192 98.7822 93.2457 99.0412 93.2432C99.3164 93.2422 99.5889 93.1888 99.8442 93.0858C100.098 92.9819 100.333 92.8376 100.541 92.6586C100.749 92.4759 100.924 92.2586 101.058 92.0162C101.197 91.7738 101.287 91.5064 101.322 91.2292L101.319 91.2356Z" fill="#231F20"></path><path d="M110.804 86.0964H111.546L113.714 93.8054H112.908L112.352 91.7561H108.266L107.11 93.8054H106.358L110.804 86.0964ZM111.035 86.8802L108.636 91.1073H112.169L111.035 86.8802Z" fill="#231F20"></path><path d="M115.917 92.5237C116.011 92.7859 116.197 93.005 116.441 93.1404C116.689 93.2824 116.971 93.3556 117.257 93.3524C117.4 93.3526 117.543 93.3309 117.681 93.2881C117.822 93.2464 117.956 93.1836 118.079 93.1018C118.203 93.0259 118.312 92.9279 118.4 92.8128C118.485 92.7 118.539 92.5672 118.557 92.4273C118.586 92.2831 118.561 92.1335 118.487 92.0065C118.412 91.8964 118.309 91.8086 118.188 91.7528C118.044 91.6808 117.892 91.6258 117.735 91.589C117.565 91.544 117.388 91.5022 117.208 91.4637C117.029 91.4236 116.852 91.3743 116.678 91.3159C116.517 91.2624 116.365 91.1809 116.232 91.075C116.104 90.974 116.004 90.8411 115.943 90.6896C115.875 90.4991 115.86 90.2935 115.901 90.0953C115.929 89.8646 116.013 89.6442 116.145 89.4529C116.269 89.2741 116.426 89.1204 116.608 89C116.789 88.8815 116.987 88.7916 117.196 88.7334C117.405 88.6754 117.621 88.6462 117.838 88.6467C118.199 88.6335 118.557 88.7119 118.879 88.8748C119.164 89.0298 119.379 89.2868 119.483 89.5943L118.84 89.9412C118.77 89.7169 118.623 89.5239 118.427 89.3951C118.23 89.2663 117.995 89.2096 117.761 89.2345C117.636 89.2365 117.512 89.2548 117.391 89.2891C117.263 89.324 117.139 89.3747 117.022 89.4401C116.909 89.504 116.808 89.589 116.727 89.6906C116.646 89.7919 116.594 89.9127 116.576 90.0407C116.553 90.1301 116.555 90.2239 116.582 90.3121C116.609 90.4003 116.659 90.4797 116.727 90.5418C116.879 90.6621 117.056 90.7495 117.244 90.7988C117.459 90.8598 117.69 90.9112 117.941 90.9562C118.178 90.9952 118.41 91.0666 118.628 91.1682C118.828 91.2615 118.998 91.4082 119.12 91.5922C119.248 91.8343 119.288 92.1139 119.232 92.3823C119.205 92.6253 119.121 92.8585 118.988 93.0633C118.864 93.2535 118.705 93.4181 118.519 93.5483C118.331 93.6817 118.121 93.7817 117.899 93.8438C117.28 94.0168 116.619 93.9633 116.036 93.6929C115.706 93.5349 115.446 93.2586 115.31 92.9188L115.917 92.5237Z" fill="#231F20"></path><path d="M122.653 95.3698C122.506 95.6696 122.296 95.9338 122.037 96.1439C121.775 96.3387 121.454 96.4384 121.128 96.4266C121.02 96.4262 120.913 96.4176 120.806 96.4009C120.704 96.383 120.604 96.3594 120.504 96.3302L120.646 95.7199C120.732 95.7488 120.826 95.7745 120.919 95.8002C121.015 95.8263 121.114 95.8392 121.214 95.8387C121.326 95.8395 121.436 95.8131 121.535 95.7617C121.632 95.7106 121.72 95.6445 121.796 95.5657C121.874 95.4838 121.944 95.3946 122.004 95.2991C122.065 95.2027 122.12 95.1 122.171 95.0004L122.795 93.8344L121.452 88.7754H122.184L123.264 93.0153L125.473 88.7754H126.174L122.653 95.3698Z" fill="#231F20"></path><path d="M128.101 90.1918C128.101 90.0987 128.13 89.9831 128.146 89.8514C128.162 89.7197 128.171 89.5783 128.181 89.4402C128.191 89.3021 128.203 89.1736 128.216 89.0548C128.229 88.9359 128.236 88.8428 128.242 88.7753H128.884C128.868 88.9648 128.852 89.1479 128.83 89.3214C128.811 89.4328 128.804 89.5458 128.807 89.6586H128.839C128.931 89.5163 129.039 89.3849 129.161 89.2668C129.29 89.1421 129.435 89.0342 129.591 88.9456C129.757 88.8528 129.932 88.7795 130.115 88.7271C130.306 88.6728 130.504 88.6458 130.702 88.6468C131.016 88.6401 131.324 88.7286 131.586 88.9006C131.72 88.9984 131.831 89.1234 131.914 89.2672C131.996 89.4111 132.048 89.5707 132.064 89.7357C132.251 89.3823 132.54 89.0934 132.893 88.907C133.213 88.7392 133.569 88.65 133.931 88.6468C134.252 88.6323 134.573 88.695 134.865 88.8299C135.081 88.9394 135.261 89.1075 135.386 89.3149C135.5 89.5289 135.565 89.7661 135.575 90.0088C135.588 90.2779 135.577 90.5477 135.543 90.815L135.129 93.8119H134.486L134.901 90.8471C134.93 90.6505 134.941 90.4515 134.933 90.2529C134.93 90.074 134.89 89.8977 134.814 89.7357C134.744 89.5855 134.633 89.4584 134.493 89.3696C134.303 89.2706 134.09 89.224 133.876 89.2346C133.604 89.2228 133.334 89.2791 133.089 89.3985C132.885 89.5059 132.705 89.6534 132.559 89.8321C132.421 90.0013 132.313 90.1924 132.238 90.3974C132.165 90.5835 132.116 90.7776 132.09 90.9756L131.698 93.8086H131.056L131.48 90.7797C131.556 90.4034 131.523 90.0132 131.383 89.6554C131.32 89.5182 131.217 89.4038 131.086 89.3279C130.955 89.252 130.805 89.2183 130.654 89.2314C130.415 89.231 130.178 89.2734 129.954 89.3567C129.727 89.4411 129.519 89.5712 129.344 89.7389C129.153 89.9244 128.997 90.1418 128.881 90.3814C128.747 90.669 128.657 90.9756 128.615 91.2904L128.264 93.8086H127.622L128.101 90.1918Z" fill="#231F20"></path><path d="M138.476 90.1918C138.492 90.0987 138.504 89.9831 138.52 89.8514C138.537 89.7197 138.546 89.5783 138.556 89.4402C138.565 89.3021 138.578 89.1736 138.591 89.0548C138.604 88.9359 138.61 88.8428 138.617 88.7753H139.259C139.243 88.9648 139.227 89.1479 139.205 89.3214C139.186 89.4328 139.178 89.5458 139.182 89.6586H139.214C139.403 89.3633 139.661 89.1185 139.966 88.9456C140.131 88.8528 140.307 88.7795 140.489 88.7271C140.681 88.6728 140.879 88.6458 141.077 88.6468C141.391 88.6401 141.699 88.7286 141.961 88.9006C142.095 88.9984 142.206 89.1234 142.289 89.2672C142.371 89.4111 142.422 89.5707 142.439 89.7357C142.626 89.3823 142.914 89.0934 143.268 88.907C143.588 88.7392 143.944 88.65 144.305 88.6468C144.627 88.6323 144.948 88.695 145.24 88.8299C145.457 88.9379 145.638 89.1064 145.761 89.3149C145.875 89.5289 145.94 89.7661 145.95 90.0088C145.965 90.2779 145.954 90.5479 145.918 90.815L145.504 93.8119H144.861L145.275 90.8471C145.305 90.6505 145.316 90.4515 145.308 90.2529C145.305 90.074 145.265 89.8977 145.189 89.7357C145.119 89.5855 145.007 89.4584 144.868 89.3696C144.678 89.2706 144.465 89.224 144.251 89.2346C143.983 89.2259 143.717 89.2833 143.477 89.4017C143.273 89.51 143.093 89.6573 142.947 89.8353C142.809 90.0045 142.7 90.1956 142.626 90.4006C142.553 90.5867 142.503 90.7808 142.478 90.9788L142.083 93.8119H141.44L141.867 90.7829C141.941 90.4063 141.907 90.0164 141.768 89.6586C141.705 89.5214 141.601 89.407 141.47 89.3311C141.34 89.2552 141.189 89.2215 141.039 89.2346C140.8 89.2345 140.563 89.2769 140.339 89.3599C140.111 89.4443 139.903 89.5744 139.728 89.7422C139.538 89.9276 139.381 90.145 139.266 90.3846C139.131 90.6722 139.041 90.9788 138.999 91.2936L138.652 93.8119H138.01L138.476 90.1918Z" fill="#231F20"></path><path d="M152.927 92.8644C152.647 93.2253 152.282 93.5103 151.864 93.6931C151.457 93.8635 151.02 93.9487 150.579 93.9436C150.229 93.9497 149.883 93.883 149.561 93.7477C149.276 93.6252 149.024 93.4356 148.828 93.1952C148.632 92.9504 148.494 92.6635 148.427 92.3568C148.349 92.0044 148.339 91.6402 148.398 91.284C148.49 90.5635 148.831 89.8978 149.361 89.4017C149.618 89.1672 149.914 88.9791 150.235 88.8461C150.566 88.712 150.919 88.6444 151.276 88.6469C151.616 88.6387 151.954 88.7067 152.265 88.8461C152.528 88.9701 152.758 89.1538 152.936 89.3825C153.12 89.6021 153.253 89.8599 153.325 90.1373C153.387 90.4202 153.395 90.7121 153.351 90.9981L153.287 91.4575H149.047C149.023 91.6333 149.023 91.8116 149.047 91.9875C149.075 92.2082 149.147 92.4211 149.259 92.6138C149.384 92.8257 149.558 93.005 149.766 93.1374C150.042 93.2953 150.358 93.37 150.675 93.3526C151.025 93.3501 151.37 93.2689 151.684 93.1149C152.003 92.9707 152.282 92.7501 152.496 92.4725L152.927 92.8644ZM152.699 90.8697C152.73 90.6548 152.714 90.4358 152.654 90.2272C152.597 90.0378 152.497 89.8641 152.361 89.7197C152.219 89.5673 152.046 89.4469 151.854 89.3664C151.651 89.2783 151.433 89.2334 151.212 89.2347C150.89 89.2249 150.572 89.3003 150.29 89.4531C150.049 89.5828 149.832 89.7523 149.647 89.9542C149.497 90.1189 149.371 90.3038 149.271 90.5035C149.21 90.6188 149.165 90.742 149.137 90.8697H152.699Z" fill="#231F20"></path><path d="M158.583 89.3663H157.144L156.688 92.6459C156.665 92.7352 156.662 92.8287 156.68 92.9194C156.697 93.0101 156.735 93.0955 156.791 93.1694C156.853 93.2339 156.929 93.2837 157.013 93.3154C157.097 93.347 157.186 93.3597 157.276 93.3525C157.406 93.3516 157.535 93.3354 157.661 93.3043C157.794 93.2728 157.924 93.2309 158.05 93.1791L158.018 93.7669C157.875 93.816 157.729 93.8567 157.581 93.8889C157.438 93.922 157.291 93.9403 157.144 93.9435C156.945 93.9499 156.747 93.9137 156.563 93.8375C156.418 93.7794 156.292 93.6841 156.197 93.5613C156.108 93.441 156.049 93.3011 156.026 93.1534C155.999 92.9853 155.999 92.814 156.026 92.6459L156.486 89.3663H155.394L155.471 88.7753H156.56L156.768 87.3267H157.411L157.205 88.7753H158.644L158.583 89.3663Z" fill="#231F20"></path><path d="M160.713 90.1919C160.713 90.0987 160.742 89.9831 160.758 89.8514C160.774 89.7197 160.783 89.5784 160.793 89.4403C160.803 89.3022 160.816 89.1737 160.828 89.0548C160.841 88.936 160.848 88.8428 160.854 88.7754H161.497C161.497 88.9649 161.461 89.148 161.442 89.3214C161.423 89.4328 161.416 89.5458 161.419 89.6587C161.619 89.3706 161.872 89.1232 162.165 88.9296C162.462 88.7378 162.81 88.6393 163.164 88.6469C163.289 88.6473 163.413 88.6657 163.533 88.7015L163.369 89.3439C163.293 89.3154 163.213 89.3002 163.131 89.2989C162.873 89.2934 162.616 89.3404 162.377 89.4371C162.165 89.524 161.973 89.6517 161.811 89.8129C161.65 89.9739 161.521 90.1634 161.429 90.3718C161.335 90.5938 161.269 90.8269 161.233 91.0656L160.851 93.8119H160.208L160.713 90.1919Z" fill="#231F20"></path><path d="M166.125 95.3698C165.98 95.6704 165.769 95.9349 165.509 96.1439C165.247 96.3387 164.926 96.4384 164.6 96.4266C164.492 96.4261 164.385 96.4175 164.278 96.4009C164.177 96.383 164.076 96.3594 163.977 96.3302L164.121 95.7199L164.391 95.8002C164.487 95.826 164.587 95.839 164.686 95.8387C164.798 95.8399 164.909 95.8134 165.008 95.7617C165.105 95.7122 165.193 95.6459 165.268 95.5657C165.347 95.4847 165.417 95.3953 165.477 95.2991C165.538 95.2027 165.595 95.1 165.647 95.0004L166.267 93.8344L164.927 88.7754H165.656L166.736 93.0153L168.949 88.7754H169.646L166.125 95.3698Z" fill="#231F20"></path></svg>